<?xml version="1.0" ?><!DOCTYPE svg  PUBLIC '-//W3C//DTD SVG 1.1//EN'  'http://www.w3.org/Graphics/SVG/1.1/DTD/svg11.dtd'><svg id="Layer_1" style="enable-background:new 0 0 64 64;" version="1.1" viewBox="0 0 64 64" xml:space="preserve" xmlns="http://www.w3.org/2000/svg" xmlns:xlink="http://www.w3.org/1999/xlink"><style type="text/css">
	.st0{fill:white;}
</style><g><g id="Icon-Undo" transform="translate(82.000000, 432.000000)"><path class="st0" d="M-49.9-380.1c-7.8,0-14.9-4.6-18.1-11.6l2.6-1.2c2.8,6,8.9,9.9,15.5,9.9c9.4,0,17-7.6,17-17     s-7.6-17-17-17c-7.1,0-13.1,4.4-15.6,11.4l-2.7-1c2.9-8.1,10-13.3,18.3-13.3c11,0,19.9,8.9,19.9,19.9S-39-380.1-49.9-380.1" id="Fill-83"/><polyline class="st0" id="Fill-84" points="-57.6,-404.6 -70,-404.6 -70,-416.9 -66.9,-416.9 -66.9,-407.7 -57.6,-407.7      -57.6,-404.6    "/></g></g></svg>